# xmcd
#
# Track frame offsets: 
#        150
#        21062
#        44112
#        68187
#        85600
#        104575
#        125950
#        146350
#        165387
#        187375
#        205162
#        227575
#
# Disc length: 3295 seconds
#
# Revision: 10
# Processed by: cddbd v1.5.2PL0 Copyright (c) Steve Scherf et al.
# Submitted via: ExactAudioCopy v1.2
#
DISCID=ad0cdd0c
DTITLE=??? - ????? 1990~1994???
DYEAR=1994
DGENRE=
TTITLE0=????????
TTITLE1=????????
TTITLE2=?????????
TTITLE3=?????????
TTITLE4=???
TTITLE5=?????
TTITLE6=???????
TTITLE7=?? ???
TTITLE8=??????
TTITLE9=????????
TTITLE10=????????
TTITLE11=??
EXTD=
EXTT0=
EXTT1=
EXTT2=
EXTT3=
EXTT4=
EXTT5=
EXTT6=
EXTT7=
EXTT8=
EXTT9=
EXTT10=
EXTT11=
PLAYORDER=
